<?xml version="1.0" standalone="no"?><!DOCTYPE svg PUBLIC "-//W3C//DTD SVG 1.1//EN" "http://www.w3.org/Graphics/SVG/1.1/DTD/svg11.dtd"><svg t="1610602436917" class="icon" viewBox="0 0 1024 1024" version="1.1" xmlns="http://www.w3.org/2000/svg" p-id="2597" xmlns:xlink="http://www.w3.org/1999/xlink" width="200" height="200"><defs><style type="text/css"></style></defs><path d="M506.181818 941.032727a421.585455 421.585455 0 1 1 421.585455-421.585454A422.050909 422.050909 0 0 1 506.181818 941.032727z m0-784.989091a363.403636 363.403636 0 1 0 363.403637 363.403637A363.869091 363.869091 0 0 0 506.181818 156.043636z" fill="#5A5A5A" p-id="2598"></path><path d="M519.68 400.523636a943.476364 943.476364 0 0 1-107.52-6.516363 1251.956364 1251.956364 0 0 1-256-58.181818l19.898182-54.69091c4.305455 1.512727 431.127273 153.832727 628.363636-28.043636l39.447273 42.821818c-74.938182 69.12-185.716364 104.610909-324.189091 104.610909zM113.687273 490.356364h784.989091v58.181818H113.687273zM814.545455 758.923636c-331.170909-120.087273-633.832727-1.512727-636.858182 0l-21.76-53.992727c13.149091-5.236364 325.818182-128 678.516363 0z" fill="#5A5A5A" p-id="2599"></path><path d="M431.36 929.047273c-310.690909-426.007273-2.210909-816.523636 0.930909-820.363637L477.090909 145.221818l-22.574545-18.269091L477.090909 145.221818c-11.636364 14.545455-283.112727 360.727273 0.814546 749.498182zM566.341818 920.203636l-46.545454-34.909091C647.214545 719.709091 680.029091 545.745455 617.890909 367.592727a640 640 0 0 0-132.189091-220.043636l41.076364-41.192727c3.723636 3.723636 372.712727 380.741818 39.563636 813.847272z" fill="#5A5A5A" p-id="2600"></path><path d="M640.581818 347.694545m-97.28 0a97.28 97.28 0 1 0 194.56 0 97.28 97.28 0 1 0-194.56 0Z" fill="#DC6450" p-id="2601"></path><path d="M321.047273 523.636364m-97.28 0a97.28 97.28 0 1 0 194.56 0 97.28 97.28 0 1 0-194.56 0Z" fill="#DC6450" p-id="2602"></path><path d="M647.214545 703.650909m-97.28 0a97.28 97.28 0 1 0 194.56 0 97.28 97.28 0 1 0-194.56 0Z" fill="#DC6450" p-id="2603"></path></svg>