<?xml version="1.0" standalone="no"?><!DOCTYPE svg PUBLIC "-//W3C//DTD SVG 1.1//EN" "http://www.w3.org/Graphics/SVG/1.1/DTD/svg11.dtd"><svg t="1610604459409" class="icon" viewBox="0 0 1024 1024" version="1.1" xmlns="http://www.w3.org/2000/svg" p-id="2597" xmlns:xlink="http://www.w3.org/1999/xlink" width="200" height="200"><defs><style type="text/css"></style></defs><path d="M149.416993 435.869281s-41.997386 141.218301 46.180393 274.572549c0.16732-0.16732 106.081046-209.652288-46.180393-274.572549zM735.372549 214.169935L716.130719 238.766013s-185.39085 27.942484-189.908497 53.207843c-4.350327 25.265359-47.016993 42.332026 32.460131 35.806536 0 0 108.75817 52.203922 123.315033 69.939869 0 0 28.946405 58.394771-59.398693 33.966014 0 0-81.484967-74.792157-160.292811-47.184314 0 0-88.512418 50.530719-64.25098 142.891503 0 0-3.346405 48.020915 80.983006 63.74902 0 0 64.585621 5.521569 58.896733 85.500653 0 0-36.141176 124.988235 12.549019 147.743791 48.690196 22.755556 97.213072-44.339869 121.139869-53.709804l46.013072-71.278431 68.099347-79.477124 29.281045-44.172549-53.542483-16.899347-32.962092-19.07451-23.090196-24.428758s11.043137-47.518954 80.648366-11.210457l46.013072 23.424836 6.19085-22.588235 39.654902-1.840523 3.848366-21.082353c0.16732-0.16732-15.393464-149.416993-146.405229-267.879738z" fill="#AAD36A" p-id="2598"></path><path d="M979.827451 448.25098c-2.677124 0-5.186928-1.003922-7.027451-2.844444s-2.844444-4.350327-2.844444-7.027451l-0.167321-78.807843c0-5.521569 4.350327-9.871895 9.871896-9.871896 5.521569 0 9.871895 4.350327 9.871895 9.871896l0.16732 78.807843c0 2.677124-1.003922 5.186928-2.844444 7.027451s-4.350327 2.844444-7.027451 2.844444z" p-id="2599"></path><path d="M999.403922 408.763399l-39.320262 0.16732c-5.521569 0-9.871895-4.350327-9.871895-9.871895 0-5.521569 4.350327-9.871895 9.871895-9.871896l39.320262-0.16732c5.521569 0 9.871895 4.350327 9.871895 9.871895 0 5.521569-4.350327 9.871895-9.871895 9.871896zM779.712418 967.445752c-2.677124 0-5.186928-1.003922-7.027451-2.844445s-2.844444-4.350327-2.844444-7.027451l-0.16732-78.807843c0-5.521569 4.350327-9.871895 9.871895-9.871895 5.521569 0 9.871895 4.350327 9.871895 9.871895l0.167321 78.807843c0 2.677124-1.003922 5.186928-2.844445 7.027451-2.007843 1.840523-4.517647 2.844444-7.027451 2.844445z" p-id="2600"></path><path d="M799.288889 927.95817l-39.320262 0.16732c-5.521569 0-9.871895-4.350327-9.871895-9.871895 0-5.521569 4.350327-9.871895 9.871895-9.871896l39.320262-0.16732c5.521569 0 9.871895 4.350327 9.871895 9.871896-0.16732 5.521569-4.517647 9.871895-9.871895 9.871895z m0 0M70.10719 224.878431c-2.677124 0-5.186928-1.003922-7.027451-2.844444s-2.844444-4.350327-2.844445-7.027451l-0.33464-78.807843c0-2.677124 1.003922-5.186928 2.844444-7.027451s4.350327-2.844444 6.860131-2.844445c2.677124 0 5.186928 1.003922 7.027451 2.844445s2.844444 4.350327 2.844444 7.027451l0.334641 78.807843c0 2.677124-1.003922 5.186928-2.844445 7.027451-1.673203 1.840523-4.183007 2.844444-6.86013 2.844444z m0 0" p-id="2601"></path><path d="M89.51634 185.39085L50.196078 185.72549c-5.521569 0-9.871895-4.350327-9.871895-9.871895 0-5.521569 4.350327-9.871895 9.871895-9.871896l39.320262-0.16732c5.521569 0 9.871895 4.350327 9.871895 9.704575 0 5.521569-4.350327 9.871895-9.871895 9.871896z m0 0" p-id="2602"></path><path d="M563.869281 833.756863c-5.521569 0-11.043137-0.669281-16.397386-2.175164-1.840523-0.501961-3.848366-1.171242-5.856209-1.840523-17.903268-6.35817-26.771242-24.930719-26.436601-55.048366 0.16732-20.915033 3.848366-41.328105 7.529412-61.071895 4.015686-22.086275 7.696732-42.833987 7.362091-64.585621-0.16732-13.385621-3.346405-23.926797-9.871895-31.95817-1.003922-1.338562-1.505882-3.011765-1.338562-4.684967 0.16732-1.673203 1.003922-3.179085 2.342483-4.350327 1.171242-1.003922 2.509804-1.338562 4.015687-1.338562 2.007843 0 3.848366 0.836601 5.019607 2.342484 8.366013 10.373856 12.54902 23.424837 12.71634 39.822222 0.334641 23.090196-3.681046 45.511111-7.529411 67.095425-3.681046 20.078431-7.027451 39.152941-7.194772 58.896732-0.334641 24.094118 5.688889 38.48366 17.903268 42.833987 5.856209 2.007843 12.047059 3.179085 18.070589 3.179085 20.413072 0 39.152941-11.712418 56.554248-23.759478 6.35817-4.517647 13.218301-8.533333 19.743791-12.549019 13.887582-8.366013 26.938562-16.230065 37.312418-27.273203 11.879739-12.71634 19.07451-27.942484 26.771242-44.172549 8.031373-17.233987 16.397386-34.969935 30.954248-49.526797l5.688889-5.688889c33.296732-33.464052 54.211765-57.056209 62.075817-69.939869l4.852288-8.031373-9.202615-2.175163c-47.016993-10.875817-69.437908-36.475817-74.624836-56.721569-3.011765-11.377778-0.836601-21.249673 5.688889-26.603921 3.513725-2.844444 7.864052-4.350327 12.88366-4.350327 12.214379 0 27.440523 8.533333 41.997385 16.899346 15.393464 8.700654 28.779085 15.895425 37.479739 15.895425 1.840523 0 3.179085-0.334641 3.848366-0.669281 2.677124-0.836601 4.684967-3.179085 6.35817-7.027451C836.601307 505.30719 864.711111 496.941176 885.124183 496.941176c2.175163 0 4.183007 0.16732 5.688889 0.334641 1.673203 0.16732 3.179085 1.003922 4.183006 2.342484 1.171242 1.338562 1.673203 3.179085 1.338563 4.852287-0.334641 3.179085-3.179085 5.688889-6.35817 5.688889h-0.836602c-1.505882-0.16732-3.179085-0.334641-5.019608-0.33464-13.05098 0-32.29281 5.186928-38.316339 9.369934l-1.673203 1.171242-0.836601 1.840523c-2.342484 5.688889-6.860131 10.039216-12.71634 12.214379-2.509804 0.836601-5.186928 1.338562-8.198693 1.338562-12.88366 0-27.942484-8.533333-43.837909-17.568627l-0.33464-0.167321c-14.054902-7.864052-27.273203-15.058824-34.969935-15.058823h-1.003921l-5.019608 0.501961-1.003922 5.019608c-0.334641 2.007843-0.669281 5.521569 0.836602 10.541176 5.354248 17.903268 27.273203 39.822222 72.784313 48.020915 4.852288 0.836601 8.198693 3.681046 9.537255 7.864052 4.183007 13.218301-12.54902 35.639216-68.935947 92.360785l-5.688889 5.688889c-12.88366 13.05098-20.413072 29.113725-28.444445 46.013071-7.696732 16.397386-15.728105 33.464052-29.113725 47.518955-11.545098 12.214379-26.101961 21.082353-39.989543 29.448366l-0.33464 0.16732c-6.19085 3.681046-12.71634 7.696732-18.572549 11.879738-18.739869 12.381699-40.324183 25.76732-64.418301 25.767321zM452.433987 587.628758c-0.669281 0-1.171242-0.16732-1.840523-0.33464l-0.501961-0.167321c-24.261438-7.027451-42.833987-20.747712-53.709804-39.487581-10.875817-18.739869-13.720261-41.997386-8.031372-67.430066 2.677124-12.214379 6.35817-23.592157 10.708497-33.798692 0.669281-1.505882 2.007843-2.844444 3.513725-3.513726 0.836601-0.334641 1.505882-0.501961 2.342484-0.501961 0.836601 0 1.673203 0.16732 2.509804 0.501961 1.505882 0.669281 2.844444 2.007843 3.513725 3.513726 0.669281 1.505882 0.669281 3.346405 0 4.852287-4.015686 9.537255-7.529412 20.078431-10.039216 31.62353-10.039216 45.511111 9.202614 78.975163 52.705883 91.691503 2.509804 0.669281 4.350327 2.342484 4.852287 4.684967 0.669281 2.175163 0 4.684967-1.673202 6.35817-1.003922 1.505882-2.509804 2.007843-4.350327 2.007843zM614.56732 432.355556c-1.338562 0-2.509804-0.334641-3.681045-1.171242-3.179085-2.175163-6.19085-4.684967-8.867974-7.194772-6.35817-6.023529-30.619608-18.572549-70.27451-36.643137l-0.334641-0.16732c-2.007843-0.669281-9.537255-2.509804-21.249673-2.509804-11.210458 0-28.109804 1.673203-45.845752 9.871895-0.836601 0.334641-1.840523 0.669281-2.677124 0.669282-0.501961 0-1.171242 0-1.673202-0.167321-1.840523-0.501961-3.346405-1.840523-4.183007-3.513725-1.505882-3.179085 0-7.027451 3.179085-8.533334 19.911111-9.202614 38.818301-11.043137 51.2-11.043137 13.552941 0 23.592157 2.342484 26.938562 3.848366 41.495425 18.90719 66.426144 31.95817 73.955556 38.985621 2.342484 2.175163 4.852288 4.183007 7.362091 6.02353 1.338562 1.003922 2.342484 2.509804 2.677124 4.183006 0.334641 1.673203 0 3.346405-1.003921 4.852288-1.338562 1.505882-3.346405 2.509804-5.521569 2.509804zM665.265359 394.206536c-0.501961 0-1.171242 0-1.673202-0.16732-0.669281-0.16732-1.338562-0.501961-2.007843-0.836602-30.452288-20.245752-78.473203-44.005229-101.061438-51.70196h-0.16732c-3.179085-1.338562-8.031373-1.673203-13.218301-2.007844l-2.342484-0.16732c-13.05098-1.003922-30.954248-2.509804-37.312418-14.389542-5.856209-11.210458-0.334641-25.098039 14.556863-36.977778 40.658824-31.95817 90.018301-37.981699 137.704575-43.837909 16.230065-2.007843 33.129412-4.015686 49.192157-7.194771l2.007843-0.33464 1.505882-1.338562c1.171242-1.171242 7.194771-7.027451 12.3817-15.728105 1.171242-2.007843 3.179085-3.179085 5.521568-3.179085 1.171242 0 2.342484 0.334641 3.346405 0.836601 3.011765 1.840523 4.015686 5.688889 2.175164 8.867974-5.186928 8.700654-15.728105 21.584314-21.249673 22.922876h-0.167321c-17.735948 3.513725-35.639216 5.688889-53.040523 7.864052-48.188235 5.856209-93.699346 11.545098-131.346405 41.160785-7.194771 5.688889-14.389542 14.556863-11.210457 20.915032l0.33464 0.669281 0.501961 0.501961c2.007843 2.509804 5.521569 4.852288 26.101961 6.35817h0.669281c6.860131 0.501961 13.218301 1.003922 18.070588 2.677124 23.424837 7.864052 72.951634 32.460131 104.240523 53.207843 3.011765 2.007843 3.681046 6.023529 1.840523 8.867974-1.171242 2.007843-3.179085 3.011765-5.354249 3.011765zM194.928105 714.457516l1.003921-9.369934-5.688889-0.501961c2.007843-3.513725 47.351634-85.835294 32.12549-164.308497-7.864052-40.826144-30.954248-73.620915-68.433986-97.547712l6.69281-11.043137c83.827451 53.375163 84.831373 137.202614 70.943791 198.274509-2.844444 12.214379-9.704575 34.802614-18.405229 56.052288-6.69281 16.062745-13.218301 28.109804-17.903268 32.962091l-0.33464-4.517647z" p-id="2603"></path><path d="M119.466667 869.061438c-40.156863 0-69.772549-11.210458-86.671896-33.966013C5.688889 798.786928 15.728105 739.555556 61.741176 664.094118c4.183007-6.860131 13.05098-9.035294 19.911112-4.852288 6.860131 4.183007 9.035294 13.05098 4.852287 19.911111C47.686275 742.901961 36.810458 792.094118 56.052288 817.861438c17.903268 24.094118 59.566013 24.428758 91.356862 20.413072 48.020915-6.023529 109.427451-25.934641 177.526798-57.892811 4.350327-2.007843 8.867974-4.183007 13.2183-6.35817 7.194771-3.513725 15.895425-0.501961 19.409151 6.692811 3.513725 7.194771 0.501961 15.895425-6.692811 19.40915l-13.552941 6.52549c-88.679739 41.328105-163.137255 62.410458-217.85098 62.410458z" p-id="2604"></path><path d="M119.466667 875.921569c-43.001307 0-73.955556-12.381699-92.026144-36.643138-28.946405-38.818301-19.07451-100.726797 28.444444-178.698039 6.19085-10.039216 19.24183-13.218301 29.281046-7.194771 10.039216 6.19085 13.218301 19.24183 7.194771 29.281046-36.643137 60.235294-47.853595 107.921569-30.786928 131.011764 15.895425 21.416993 55.048366 21.416993 85.166013 17.735948 47.351634-5.856209 108.088889-25.76732 175.518955-57.223529 4.350327-2.007843 8.700654-4.183007 13.2183-6.19085 5.186928-2.509804 10.875817-2.844444 16.230066-1.003922 5.354248 1.840523 9.704575 5.688889 12.214379 10.875817s2.844444 10.875817 1.003921 16.230066c-1.840523 5.354248-5.688889 9.704575-10.875817 12.214379-4.517647 2.175163-9.202614 4.350327-13.720261 6.52549-88.345098 41.160784-164.643137 63.079739-220.862745 63.079739zM403.911111 770.844444c-5.186928 0-10.039216-2.677124-12.71634-7.529411-3.848366-7.027451-1.338562-15.895425 5.688889-19.743791 23.926797-13.218301 48.522876-27.607843 72.784314-43.001307 6.860131-4.183007 15.728105-2.175163 19.911111 4.517647 4.183007 6.860131 2.175163 15.728105-4.517647 19.911111-24.763399 15.560784-49.861438 30.284967-74.290196 43.837908-2.007843 1.338562-4.350327 2.007843-6.860131 2.007843z" p-id="2605"></path><path d="M403.911111 777.537255c-7.696732 0-14.891503-4.183007-18.739869-11.043137-2.677124-5.019608-3.346405-10.708497-1.840523-16.230066 1.505882-5.521569 5.186928-10.039216 10.206536-12.71634 23.926797-13.218301 48.188235-27.607843 72.449673-42.833987 4.852288-3.011765 10.541176-4.015686 16.062745-2.677124 5.521569 1.338562 10.206536 4.684967 13.385621 9.369935 6.19085 9.871895 3.179085 23.090196-6.69281 29.448366-24.930719 15.728105-50.028758 30.452288-74.624837 44.005229-3.011765 1.840523-6.52549 2.677124-10.206536 2.677124zM536.763399 688.355556c-4.684967 0-9.202614-2.175163-11.879739-6.19085-4.517647-6.52549-2.844444-15.560784 3.681046-20.245752 6.023529-4.183007 12.047059-8.366013 18.070588-12.71634 11.545098-8.198693 23.257516-16.564706 34.635294-25.265359 116.956863-87.173856 216.010458-183.215686 279.090196-270.556863 30.117647-41.662745 50.196078-78.807843 59.733334-110.431372 8.867974-29.615686 7.864052-52.203922-3.346406-67.095425-18.90719-25.265359-63.74902-24.596078-98.049673-19.576471-7.864052 1.171242-15.226144-4.350327-16.397385-12.214379-1.171242-7.864052 4.350327-15.226144 12.214379-16.397386 61.239216-9.035294 103.571242 1.338562 125.490196 30.786929 16.899346 22.588235 19.576471 53.877124 7.864052 92.695424-10.373856 34.635294-31.95817 74.792157-63.91634 119.132027C819.2 460.130719 717.803922 558.347712 598.671895 647.362092c-11.712418 8.700654-23.592157 17.233987-35.304575 25.6-6.023529 4.350327-12.214379 8.700654-18.405228 12.88366-2.509804 1.673203-5.354248 2.509804-8.198693 2.509804z" p-id="2606"></path><path d="M536.763399 695.215686c-7.027451 0-13.552941-3.513725-17.568628-9.202614-6.69281-9.704575-4.183007-22.922876 5.521569-29.615686l18.070588-12.54902c11.377778-8.031373 23.090196-16.564706 34.467974-25.098039 116.454902-86.839216 215.006536-182.379085 277.751634-269.050981 29.615686-40.993464 49.359477-77.469281 58.729412-108.423529 8.198693-27.440523 7.529412-48.020915-2.175164-61.071895-13.05098-17.568627-45.678431-23.592157-91.524183-16.899347-5.688889 0.836601-11.210458-0.501961-15.895425-4.015686s-7.529412-8.366013-8.366013-14.054902 0.501961-11.210458 4.015687-15.895425c3.346405-4.517647 8.366013-7.529412 14.054902-8.366013 63.91634-9.369935 108.423529 1.840523 132.015686 33.464052 18.237908 24.428758 21.249673 57.72549 8.867974 98.718955-10.708497 35.471895-32.460131 76.130719-64.920262 121.139869-65.087582 90.185621-166.985621 189.071895-286.786928 278.253595-11.712418 8.700654-23.592157 17.401307-35.304575 25.76732-6.19085 4.350327-12.381699 8.700654-18.405229 12.88366-4.015686 2.677124-8.198693 4.015686-12.549019 4.015686zM270.054902 244.120261c-3.848366 0-7.696732-1.673203-10.373856-4.852287-4.852288-5.688889-4.183007-14.389542 1.505882-19.24183 39.152941-33.464052 83.994771-58.394771 132.852288-73.955556 7.194771-2.342484 14.891503 1.673203 17.066666 8.867974 2.342484 7.194771-1.673203 14.891503-8.867974 17.066667-45.343791 14.556863-87.006536 37.647059-123.315032 68.768627-2.509804 2.342484-5.688889 3.346405-8.867974 3.346405z" p-id="2607"></path><path d="M270.054902 249.30719c-5.521569 0-10.708497-2.342484-14.222222-6.525491-3.179085-3.848366-4.852288-8.700654-4.350327-13.720261 0.334641-5.019608 2.677124-9.537255 6.52549-12.71634C297.830065 182.379085 343.006536 157.281046 392.533333 141.385621c4.852288-1.505882 9.871895-1.171242 14.389543 1.171242 4.517647 2.342484 7.696732 6.19085 9.202614 11.043137 3.179085 9.871895-2.342484 20.413072-12.214379 23.592157-44.84183 14.222222-85.667974 37.145098-121.64183 67.764706-3.346405 2.677124-7.696732 4.350327-12.214379 4.350327zM242.447059 784.230065c-3.513725 0-7.194771-1.338562-9.871896-4.183006-68.935948-72.115033-106.750327-166.65098-106.750326-266.373856 0-87.173856 28.277124-169.328105 81.986928-237.762092 4.684967-5.856209 13.218301-7.027451 19.24183-2.342484 5.856209 4.684967 7.027451 13.218301 2.342483 19.241831-49.861438 63.581699-76.130719 139.879739-76.130719 220.862745 0 92.695425 35.304575 180.538562 99.220916 247.466666 5.186928 5.521569 5.019608 14.054902-0.501961 19.24183-2.677124 2.509804-6.19085 3.848366-9.537255 3.848366z" p-id="2608"></path><path d="M242.447059 789.249673c-5.186928 0-10.039216-2.007843-13.552941-5.856209-69.772549-72.951634-108.256209-168.826144-108.25621-269.887582 0-88.345098 28.779085-171.503268 83.15817-240.941176 6.35817-8.198693 18.237908-9.537255 26.269281-3.179085 8.198693 6.35817 9.537255 18.237908 3.179085 26.269281-49.192157 62.577778-75.126797 137.871895-75.126797 217.68366 0 91.356863 34.802614 178.028758 97.882353 243.952941 7.194771 7.529412 6.860131 19.40915-0.669281 26.603922-3.346405 3.513725-8.031373 5.354248-12.88366 5.354248zM511.330719 899.179085c-68.266667 0-135.194771-18.070588-193.924183-52.203922-6.52549-3.848366-8.700654-12.214379-4.852288-18.739869 3.848366-6.52549 12.214379-8.700654 18.73987-4.852287 54.379085 31.79085 116.789542 48.522876 180.203921 48.522875 197.605229 0 358.23268-160.794771 358.23268-358.232679 0-29.615686-3.681046-59.231373-10.875817-87.675817-1.840523-7.362092 2.677124-14.724183 9.871895-16.564706 7.362092-1.840523 14.724183 2.677124 16.564706 9.871895 7.696732 30.619608 11.712418 62.410458 11.712419 94.368628 0 103.069281-40.156863 199.780392-112.941177 272.732026s-169.662745 112.773856-272.732026 112.773856z" p-id="2609"></path><path d="M511.330719 904.366013c-69.103268 0-137.035294-18.237908-196.433987-52.873203-4.350327-2.509804-7.362092-6.52549-8.700654-11.377777-1.338562-4.852288-0.669281-9.871895 2.007844-14.222223 5.186928-8.867974 16.732026-12.047059 25.6-6.69281 53.709804 31.288889 115.11634 47.853595 177.526797 47.853595 194.760784 0 353.213072-158.452288 353.213072-353.213072 0-29.281046-3.513725-58.394771-10.708497-86.504575-2.509804-10.039216 3.513725-20.245752 13.552941-22.755556s20.245752 3.513725 22.755556 13.552941c7.864052 31.121569 11.712418 63.247059 11.712418 95.53987 0 104.407843-40.658824 202.457516-114.447059 276.245751-73.620915 73.788235-171.670588 114.447059-276.078431 114.447059zM832.25098 338.99085c-4.684967 0-9.202614-2.342484-11.712418-6.692811C756.287582 223.037908 637.824837 155.273203 511.330719 155.273203c-7.529412 0-13.720261-6.19085-13.720261-13.720262 0-7.529412 6.19085-13.720261 13.720261-13.720261 68.433987 0 135.529412 18.070588 194.258823 52.538562 57.056209 33.296732 104.742484 80.983007 138.206536 137.871895 3.848366 6.52549 1.673203 14.891503-4.852287 18.73987-2.007843 1.338562-4.350327 2.007843-6.692811 2.007843z" p-id="2610"></path><path d="M832.25098 344.010458c-6.69281 0-12.88366-3.513725-16.230065-9.202615-63.247059-107.586928-180.036601-174.347712-304.690196-174.347712-10.373856 0-18.739869-8.366013-18.739869-18.73987 0-10.373856 8.366013-18.739869 18.739869-18.739869 69.270588 0 137.369935 18.405229 196.935948 53.207843 57.72549 33.798693 106.248366 81.986928 140.047058 139.712419 2.509804 4.350327 3.179085 9.369935 2.007844 14.222222-1.338562 4.852288-4.350327 8.867974-8.700654 11.545098-2.844444 1.505882-6.023529 2.342484-9.369935 2.342484z" p-id="2611"></path></svg>